# MagicaVoxel @ Ephtracy

# group
o 

# material
mtllib HadaNivel5-1.mtl
usemtl palette

# normals
vn -1 0 0
vn 1 0 0
vn 0 0 1
vn 0 0 -1
vn 0 -1 0
vn 0 1 0

# texcoords
vt 0.541016 0.5
vt 0.666016 0.5

# verts
v -0.5 6.6 0.3
v -0.5 6.6 -0.6
v -0.5 6.7 0.1
v -0.5 6.7 0
v -0.5 6.7 -0.3
v -0.5 6.7 -0.4
v -0.5 6.8 0.3
v -0.5 6.8 0.2
v -0.5 6.8 0.1
v -0.5 6.8 0
v -0.5 6.8 -0.1
v -0.5 6.8 -0.2
v -0.5 6.8 -0.3
v -0.5 6.8 -0.4
v -0.5 6.8 -0.5
v -0.5 6.8 -0.6
v -0.5 6.9 0.3
v -0.5 6.9 0.2
v -0.5 6.9 -0.1
v -0.5 6.9 -0.2
v -0.5 6.9 -0.5
v -0.5 6.9 -0.6
v -0.5 7 -0.1
v -0.5 7 -0.2
v -0.2 6.7 0.3
v -0.2 6.7 0.2
v -0.2 6.7 -0.5
v -0.2 6.7 -0.6
v -0.2 6.8 0.3
v -0.2 6.8 0.2
v -0.2 6.8 -0.5
v -0.2 6.8 -0.6
v -0.1 6.8 0.3
v -0.1 6.8 0.2
v -0.1 6.8 -0.5
v -0.1 6.8 -0.6
v -0.1 6.9 0.3
v -0.1 6.9 0.2
v -0.1 6.9 -0.5
v -0.1 6.9 -0.6
v -0.1 7 0.3
v -0.1 7 0.2
v -0.1 7 -0.5
v -0.1 7 -0.6
v 0.3 6.7 0.3
v 0.3 6.7 0.2
v 0.3 6.7 -0.5
v 0.3 6.7 -0.6
v 0.3 6.8 0.3
v 0.3 6.8 0.2
v 0.3 6.8 -0.5
v 0.3 6.8 -0.6
v 0.4 6.6 0.2
v 0.4 6.6 -0.5
v 0.4 6.7 0.1
v 0.4 6.7 0
v 0.4 6.7 -0.3
v 0.4 6.7 -0.4
v 0.4 6.8 0.3
v 0.4 6.8 0.2
v 0.4 6.8 0.1
v 0.4 6.8 0
v 0.4 6.8 -0.1
v 0.4 6.8 -0.2
v 0.4 6.8 -0.3
v 0.4 6.8 -0.4
v 0.4 6.8 -0.5
v 0.4 6.8 -0.6
v 0.4 6.9 0.3
v 0.4 6.9 0.2
v 0.4 6.9 -0.1
v 0.4 6.9 -0.2
v 0.4 6.9 -0.5
v 0.4 6.9 -0.6
v 0.4 7 -0.1
v 0.4 7 -0.2
v -0.4 6.6 0.2
v -0.4 6.6 -0.5
v -0.4 6.7 0.1
v -0.4 6.7 0
v -0.4 6.7 -0.3
v -0.4 6.7 -0.4
v -0.4 6.8 0.3
v -0.4 6.8 0.2
v -0.4 6.8 0.1
v -0.4 6.8 0
v -0.4 6.8 -0.1
v -0.4 6.8 -0.2
v -0.4 6.8 -0.3
v -0.4 6.8 -0.4
v -0.4 6.8 -0.5
v -0.4 6.8 -0.6
v -0.4 6.9 0.3
v -0.4 6.9 0.2
v -0.4 6.9 -0.1
v -0.4 6.9 -0.2
v -0.4 6.9 -0.5
v -0.4 6.9 -0.6
v -0.4 7 -0.1
v -0.4 7 -0.2
v -0.3 6.7 0.3
v -0.3 6.7 0.2
v -0.3 6.7 -0.5
v -0.3 6.7 -0.6
v -0.3 6.8 0.3
v -0.3 6.8 0.2
v -0.3 6.8 -0.5
v -0.3 6.8 -0.6
v 0.1 6.8 0.3
v 0.1 6.8 0.2
v 0.1 6.8 -0.5
v 0.1 6.8 -0.6
v 0.1 6.9 0.3
v 0.1 6.9 0.2
v 0.1 6.9 -0.5
v 0.1 6.9 -0.6
v 0.1 7 0.3
v 0.1 7 0.2
v 0.1 7 -0.5
v 0.1 7 -0.6
v 0.2 6.7 0.3
v 0.2 6.7 0.2
v 0.2 6.7 -0.5
v 0.2 6.7 -0.6
v 0.2 6.8 0.3
v 0.2 6.8 0.2
v 0.2 6.8 -0.5
v 0.2 6.8 -0.6
v 0.5 6.6 0.3
v 0.5 6.6 -0.6
v 0.5 6.7 0.1
v 0.5 6.7 0
v 0.5 6.7 -0.3
v 0.5 6.7 -0.4
v 0.5 6.8 0.3
v 0.5 6.8 0.2
v 0.5 6.8 0.1
v 0.5 6.8 0
v 0.5 6.8 -0.1
v 0.5 6.8 -0.2
v 0.5 6.8 -0.3
v 0.5 6.8 -0.4
v 0.5 6.8 -0.5
v 0.5 6.8 -0.6
v 0.5 6.9 0.3
v 0.5 6.9 0.2
v 0.5 6.9 -0.1
v 0.5 6.9 -0.2
v 0.5 6.9 -0.5
v 0.5 6.9 -0.6
v 0.5 7 -0.1
v 0.5 7 -0.2
v -0.5 6.6 0.3
v -0.5 6.8 0.3
v -0.5 6.9 0.3
v -0.4 6.8 0.3
v -0.4 6.9 0.3
v -0.3 6.7 0.3
v -0.3 6.8 0.3
v -0.2 6.7 0.3
v -0.2 6.8 0.3
v -0.1 6.8 0.3
v -0.1 6.9 0.3
v -0.1 7 0.3
v 0.1 6.8 0.3
v 0.1 6.9 0.3
v 0.1 7 0.3
v 0.2 6.7 0.3
v 0.2 6.8 0.3
v 0.3 6.7 0.3
v 0.3 6.8 0.3
v 0.4 6.8 0.3
v 0.4 6.9 0.3
v 0.5 6.6 0.3
v 0.5 6.8 0.3
v 0.5 6.9 0.3
v -0.5 6.7 0
v -0.5 6.8 0
v -0.4 6.7 0
v -0.4 6.8 0
v 0.4 6.7 0
v 0.4 6.8 0
v 0.5 6.7 0
v 0.5 6.8 0
v -0.5 6.8 -0.1
v -0.5 6.9 -0.1
v -0.5 7 -0.1
v -0.4 6.8 -0.1
v -0.4 6.9 -0.1
v -0.4 7 -0.1
v 0.4 6.8 -0.1
v 0.4 6.9 -0.1
v 0.4 7 -0.1
v 0.5 6.8 -0.1
v 0.5 6.9 -0.1
v 0.5 7 -0.1
v -0.5 6.7 -0.4
v -0.5 6.8 -0.4
v -0.4 6.7 -0.4
v -0.4 6.8 -0.4
v 0.4 6.7 -0.4
v 0.4 6.8 -0.4
v 0.5 6.7 -0.4
v 0.5 6.8 -0.4
v -0.5 6.8 -0.5
v -0.5 6.9 -0.5
v -0.4 6.6 -0.5
v -0.4 6.8 -0.5
v -0.4 6.9 -0.5
v -0.3 6.7 -0.5
v -0.3 6.8 -0.5
v -0.2 6.7 -0.5
v -0.2 6.8 -0.5
v -0.1 6.8 -0.5
v -0.1 6.9 -0.5
v -0.1 7 -0.5
v 0.1 6.8 -0.5
v 0.1 6.9 -0.5
v 0.1 7 -0.5
v 0.2 6.7 -0.5
v 0.2 6.8 -0.5
v 0.3 6.7 -0.5
v 0.3 6.8 -0.5
v 0.4 6.6 -0.5
v 0.4 6.8 -0.5
v 0.4 6.9 -0.5
v 0.5 6.8 -0.5
v 0.5 6.9 -0.5
v -0.5 6.8 0.2
v -0.5 6.9 0.2
v -0.4 6.6 0.2
v -0.4 6.8 0.2
v -0.4 6.9 0.2
v -0.3 6.7 0.2
v -0.3 6.8 0.2
v -0.2 6.7 0.2
v -0.2 6.8 0.2
v -0.1 6.8 0.2
v -0.1 6.9 0.2
v -0.1 7 0.2
v 0.1 6.8 0.2
v 0.1 6.9 0.2
v 0.1 7 0.2
v 0.2 6.7 0.2
v 0.2 6.8 0.2
v 0.3 6.7 0.2
v 0.3 6.8 0.2
v 0.4 6.6 0.2
v 0.4 6.8 0.2
v 0.4 6.9 0.2
v 0.5 6.8 0.2
v 0.5 6.9 0.2
v -0.5 6.7 0.1
v -0.5 6.8 0.1
v -0.4 6.7 0.1
v -0.4 6.8 0.1
v 0.4 6.7 0.1
v 0.4 6.8 0.1
v 0.5 6.7 0.1
v 0.5 6.8 0.1
v -0.5 6.8 -0.2
v -0.5 6.9 -0.2
v -0.5 7 -0.2
v -0.4 6.8 -0.2
v -0.4 6.9 -0.2
v -0.4 7 -0.2
v 0.4 6.8 -0.2
v 0.4 6.9 -0.2
v 0.4 7 -0.2
v 0.5 6.8 -0.2
v 0.5 6.9 -0.2
v 0.5 7 -0.2
v -0.5 6.7 -0.3
v -0.5 6.8 -0.3
v -0.4 6.7 -0.3
v -0.4 6.8 -0.3
v 0.4 6.7 -0.3
v 0.4 6.8 -0.3
v 0.5 6.7 -0.3
v 0.5 6.8 -0.3
v -0.5 6.6 -0.6
v -0.5 6.8 -0.6
v -0.5 6.9 -0.6
v -0.4 6.8 -0.6
v -0.4 6.9 -0.6
v -0.3 6.7 -0.6
v -0.3 6.8 -0.6
v -0.2 6.7 -0.6
v -0.2 6.8 -0.6
v -0.1 6.8 -0.6
v -0.1 6.9 -0.6
v -0.1 7 -0.6
v 0.1 6.8 -0.6
v 0.1 6.9 -0.6
v 0.1 7 -0.6
v 0.2 6.7 -0.6
v 0.2 6.8 -0.6
v 0.3 6.7 -0.6
v 0.3 6.8 -0.6
v 0.4 6.8 -0.6
v 0.4 6.9 -0.6
v 0.5 6.6 -0.6
v 0.5 6.8 -0.6
v 0.5 6.9 -0.6
v -0.5 6.6 0.3
v 0.5 6.6 0.3
v -0.4 6.6 0.2
v 0.4 6.6 0.2
v -0.4 6.6 -0.5
v 0.4 6.6 -0.5
v -0.5 6.6 -0.6
v 0.5 6.6 -0.6
v -0.3 6.7 0.3
v -0.2 6.7 0.3
v 0.2 6.7 0.3
v 0.3 6.7 0.3
v -0.3 6.7 0.2
v -0.2 6.7 0.2
v 0.2 6.7 0.2
v 0.3 6.7 0.2
v -0.5 6.7 0.1
v -0.4 6.7 0.1
v 0.4 6.7 0.1
v 0.5 6.7 0.1
v -0.5 6.7 0
v -0.4 6.7 0
v 0.4 6.7 0
v 0.5 6.7 0
v -0.5 6.7 -0.3
v -0.4 6.7 -0.3
v 0.4 6.7 -0.3
v 0.5 6.7 -0.3
v -0.5 6.7 -0.4
v -0.4 6.7 -0.4
v 0.4 6.7 -0.4
v 0.5 6.7 -0.4
v -0.3 6.7 -0.5
v -0.2 6.7 -0.5
v 0.2 6.7 -0.5
v 0.3 6.7 -0.5
v -0.3 6.7 -0.6
v -0.2 6.7 -0.6
v 0.2 6.7 -0.6
v 0.3 6.7 -0.6
v -0.4 6.8 0.3
v -0.3 6.8 0.3
v -0.2 6.8 0.3
v -0.1 6.8 0.3
v 0.1 6.8 0.3
v 0.2 6.8 0.3
v 0.3 6.8 0.3
v 0.4 6.8 0.3
v -0.5 6.8 0.2
v -0.4 6.8 0.2
v -0.3 6.8 0.2
v -0.2 6.8 0.2
v -0.1 6.8 0.2
v 0.1 6.8 0.2
v 0.2 6.8 0.2
v 0.3 6.8 0.2
v 0.4 6.8 0.2
v 0.5 6.8 0.2
v -0.5 6.8 0.1
v -0.4 6.8 0.1
v 0.4 6.8 0.1
v 0.5 6.8 0.1
v -0.5 6.8 0
v -0.4 6.8 0
v 0.4 6.8 0
v 0.5 6.8 0
v -0.5 6.8 -0.1
v -0.4 6.8 -0.1
v 0.4 6.8 -0.1
v 0.5 6.8 -0.1
v -0.5 6.8 -0.2
v -0.4 6.8 -0.2
v 0.4 6.8 -0.2
v 0.5 6.8 -0.2
v -0.5 6.8 -0.3
v -0.4 6.8 -0.3
v 0.4 6.8 -0.3
v 0.5 6.8 -0.3
v -0.5 6.8 -0.4
v -0.4 6.8 -0.4
v 0.4 6.8 -0.4
v 0.5 6.8 -0.4
v -0.5 6.8 -0.5
v -0.4 6.8 -0.5
v -0.3 6.8 -0.5
v -0.2 6.8 -0.5
v -0.1 6.8 -0.5
v 0.1 6.8 -0.5
v 0.2 6.8 -0.5
v 0.3 6.8 -0.5
v 0.4 6.8 -0.5
v 0.5 6.8 -0.5
v -0.4 6.8 -0.6
v -0.3 6.8 -0.6
v -0.2 6.8 -0.6
v -0.1 6.8 -0.6
v 0.1 6.8 -0.6
v 0.2 6.8 -0.6
v 0.3 6.8 -0.6
v 0.4 6.8 -0.6
v -0.5 6.9 0.3
v -0.4 6.9 0.3
v 0.4 6.9 0.3
v 0.5 6.9 0.3
v -0.5 6.9 0.2
v -0.4 6.9 0.2
v 0.4 6.9 0.2
v 0.5 6.9 0.2
v -0.5 6.9 -0.5
v -0.4 6.9 -0.5
v 0.4 6.9 -0.5
v 0.5 6.9 -0.5
v -0.5 6.9 -0.6
v -0.4 6.9 -0.6
v 0.4 6.9 -0.6
v 0.5 6.9 -0.6
v -0.1 7 0.3
v 0.1 7 0.3
v -0.1 7 0.2
v 0.1 7 0.2
v -0.5 7 -0.1
v -0.4 7 -0.1
v 0.4 7 -0.1
v 0.5 7 -0.1
v -0.5 7 -0.2
v -0.4 7 -0.2
v 0.4 7 -0.2
v 0.5 7 -0.2
v -0.1 7 -0.5
v 0.1 7 -0.5
v -0.1 7 -0.6
v 0.1 7 -0.6

# faces
f 3/1/1 2/1/1 1/1/1
f 4/1/1 2/1/1 3/1/1
f 5/1/1 2/1/1 4/1/1
f 6/1/1 2/1/1 5/1/1
f 7/1/1 3/1/1 1/1/1
f 8/1/1 3/1/1 7/1/1
f 9/1/1 3/1/1 8/1/1
f 10/1/1 5/1/1 4/1/1
f 11/1/1 5/1/1 10/1/1
f 12/1/1 5/1/1 11/1/1
f 13/1/1 5/1/1 12/1/1
f 14/1/1 2/1/1 6/1/1
f 15/1/1 2/1/1 14/1/1
f 16/1/1 2/1/1 15/1/1
f 17/2/1 8/2/1 7/2/1
f 18/2/1 8/2/1 17/2/1
f 19/1/1 12/1/1 11/1/1
f 20/1/1 12/1/1 19/1/1
f 21/2/1 16/2/1 15/2/1
f 22/2/1 16/2/1 21/2/1
f 23/2/1 20/2/1 19/2/1
f 24/2/1 20/2/1 23/2/1
f 29/1/1 26/1/1 25/1/1
f 30/1/1 26/1/1 29/1/1
f 31/1/1 28/1/1 27/1/1
f 32/1/1 28/1/1 31/1/1
f 37/1/1 34/1/1 33/1/1
f 38/1/1 34/1/1 37/1/1
f 39/1/1 36/1/1 35/1/1
f 40/1/1 36/1/1 39/1/1
f 41/2/1 38/2/1 37/2/1
f 42/2/1 38/2/1 41/2/1
f 43/2/1 40/2/1 39/2/1
f 44/2/1 40/2/1 43/2/1
f 49/1/1 46/1/1 45/1/1
f 50/1/1 46/1/1 49/1/1
f 51/1/1 48/1/1 47/1/1
f 52/1/1 48/1/1 51/1/1
f 55/1/1 54/1/1 53/1/1
f 56/1/1 54/1/1 55/1/1
f 57/1/1 54/1/1 56/1/1
f 58/1/1 54/1/1 57/1/1
f 60/1/1 55/1/1 53/1/1
f 61/1/1 55/1/1 60/1/1
f 62/1/1 57/1/1 56/1/1
f 63/1/1 57/1/1 62/1/1
f 64/1/1 57/1/1 63/1/1
f 65/1/1 57/1/1 64/1/1
f 66/1/1 54/1/1 58/1/1
f 67/1/1 54/1/1 66/1/1
f 69/2/1 60/2/1 59/2/1
f 70/2/1 60/2/1 69/2/1
f 71/1/1 64/1/1 63/1/1
f 72/1/1 64/1/1 71/1/1
f 73/2/1 68/2/1 67/2/1
f 74/2/1 68/2/1 73/2/1
f 75/2/1 72/2/1 71/2/1
f 76/2/1 72/2/1 75/2/1
f 77/1/2 78/1/2 79/1/2
f 79/1/2 78/1/2 80/1/2
f 80/1/2 78/1/2 81/1/2
f 81/1/2 78/1/2 82/1/2
f 77/1/2 79/1/2 84/1/2
f 84/1/2 79/1/2 85/1/2
f 80/1/2 81/1/2 86/1/2
f 86/1/2 81/1/2 87/1/2
f 87/1/2 81/1/2 88/1/2
f 88/1/2 81/1/2 89/1/2
f 82/1/2 78/1/2 90/1/2
f 90/1/2 78/1/2 91/1/2
f 83/2/2 84/2/2 93/2/2
f 93/2/2 84/2/2 94/2/2
f 87/1/2 88/1/2 95/1/2
f 95/1/2 88/1/2 96/1/2
f 91/2/2 92/2/2 97/2/2
f 97/2/2 92/2/2 98/2/2
f 95/2/2 96/2/2 99/2/2
f 99/2/2 96/2/2 100/2/2
f 101/1/2 102/1/2 105/1/2
f 105/1/2 102/1/2 106/1/2
f 103/1/2 104/1/2 107/1/2
f 107/1/2 104/1/2 108/1/2
f 109/1/2 110/1/2 113/1/2
f 113/1/2 110/1/2 114/1/2
f 111/1/2 112/1/2 115/1/2
f 115/1/2 112/1/2 116/1/2
f 113/2/2 114/2/2 117/2/2
f 117/2/2 114/2/2 118/2/2
f 115/2/2 116/2/2 119/2/2
f 119/2/2 116/2/2 120/2/2
f 121/1/2 122/1/2 125/1/2
f 125/1/2 122/1/2 126/1/2
f 123/1/2 124/1/2 127/1/2
f 127/1/2 124/1/2 128/1/2
f 129/1/2 130/1/2 131/1/2
f 131/1/2 130/1/2 132/1/2
f 132/1/2 130/1/2 133/1/2
f 133/1/2 130/1/2 134/1/2
f 129/1/2 131/1/2 135/1/2
f 135/1/2 131/1/2 136/1/2
f 136/1/2 131/1/2 137/1/2
f 132/1/2 133/1/2 138/1/2
f 138/1/2 133/1/2 139/1/2
f 139/1/2 133/1/2 140/1/2
f 140/1/2 133/1/2 141/1/2
f 134/1/2 130/1/2 142/1/2
f 142/1/2 130/1/2 143/1/2
f 143/1/2 130/1/2 144/1/2
f 135/2/2 136/2/2 145/2/2
f 145/2/2 136/2/2 146/2/2
f 139/1/2 140/1/2 147/1/2
f 147/1/2 140/1/2 148/1/2
f 143/2/2 144/2/2 149/2/2
f 149/2/2 144/2/2 150/2/2
f 147/2/2 148/2/2 151/2/2
f 151/2/2 148/2/2 152/2/2
f 156/1/3 154/1/3 153/1/3
f 156/2/3 155/2/3 154/2/3
f 157/2/3 155/2/3 156/2/3
f 158/1/3 156/1/3 153/1/3
f 159/1/3 156/1/3 158/1/3
f 160/1/3 158/1/3 153/1/3
f 162/1/3 161/1/3 160/1/3
f 165/1/3 163/1/3 162/1/3
f 165/1/3 162/1/3 160/1/3
f 166/2/3 164/2/3 163/2/3
f 166/1/3 163/1/3 165/1/3
f 167/2/3 164/2/3 166/2/3
f 168/1/3 165/1/3 160/1/3
f 168/1/3 160/1/3 153/1/3
f 169/1/3 165/1/3 168/1/3
f 170/1/3 168/1/3 153/1/3
f 172/1/3 171/1/3 170/1/3
f 174/1/3 172/1/3 170/1/3
f 174/1/3 170/1/3 153/1/3
f 175/2/3 173/2/3 172/2/3
f 175/1/3 172/1/3 174/1/3
f 176/2/3 173/2/3 175/2/3
f 179/1/3 178/1/3 177/1/3
f 180/1/3 178/1/3 179/1/3
f 183/1/3 182/1/3 181/1/3
f 184/1/3 182/1/3 183/1/3
f 188/1/3 186/1/3 185/1/3
f 189/2/3 187/2/3 186/2/3
f 189/1/3 186/1/3 188/1/3
f 190/2/3 187/2/3 189/2/3
f 194/1/3 192/1/3 191/1/3
f 195/2/3 193/2/3 192/2/3
f 195/1/3 192/1/3 194/1/3
f 196/2/3 193/2/3 195/2/3
f 199/1/3 198/1/3 197/1/3
f 200/1/3 198/1/3 199/1/3
f 203/1/3 202/1/3 201/1/3
f 204/1/3 202/1/3 203/1/3
f 208/2/3 206/2/3 205/2/3
f 209/2/3 206/2/3 208/2/3
f 210/1/3 208/1/3 207/1/3
f 211/1/3 208/1/3 210/1/3
f 212/1/3 210/1/3 207/1/3
f 214/1/3 213/1/3 212/1/3
f 217/1/3 215/1/3 214/1/3
f 217/1/3 214/1/3 212/1/3
f 218/2/3 216/2/3 215/2/3
f 218/1/3 215/1/3 217/1/3
f 219/2/3 216/2/3 218/2/3
f 220/1/3 217/1/3 212/1/3
f 220/1/3 212/1/3 207/1/3
f 221/1/3 217/1/3 220/1/3
f 222/1/3 220/1/3 207/1/3
f 224/1/3 222/1/3 207/1/3
f 224/1/3 223/1/3 222/1/3
f 225/1/3 223/1/3 224/1/3
f 227/2/3 226/2/3 225/2/3
f 228/2/3 226/2/3 227/2/3
f 229/2/4 230/2/4 232/2/4
f 232/2/4 230/2/4 233/2/4
f 231/1/4 232/1/4 234/1/4
f 234/1/4 232/1/4 235/1/4
f 231/1/4 234/1/4 236/1/4
f 236/1/4 237/1/4 238/1/4
f 238/1/4 239/1/4 241/1/4
f 236/1/4 238/1/4 241/1/4
f 239/2/4 240/2/4 242/2/4
f 241/1/4 239/1/4 242/1/4
f 242/2/4 240/2/4 243/2/4
f 236/1/4 241/1/4 244/1/4
f 231/1/4 236/1/4 244/1/4
f 244/1/4 241/1/4 245/1/4
f 231/1/4 244/1/4 246/1/4
f 231/1/4 246/1/4 248/1/4
f 246/1/4 247/1/4 248/1/4
f 248/1/4 247/1/4 249/1/4
f 249/2/4 250/2/4 251/2/4
f 251/2/4 250/2/4 252/2/4
f 253/1/4 254/1/4 255/1/4
f 255/1/4 254/1/4 256/1/4
f 257/1/4 258/1/4 259/1/4
f 259/1/4 258/1/4 260/1/4
f 261/1/4 262/1/4 264/1/4
f 262/2/4 263/2/4 265/2/4
f 264/1/4 262/1/4 265/1/4
f 265/2/4 263/2/4 266/2/4
f 267/1/4 268/1/4 270/1/4
f 268/2/4 269/2/4 271/2/4
f 270/1/4 268/1/4 271/1/4
f 271/2/4 269/2/4 272/2/4
f 273/1/4 274/1/4 275/1/4
f 275/1/4 274/1/4 276/1/4
f 277/1/4 278/1/4 279/1/4
f 279/1/4 278/1/4 280/1/4
f 281/1/4 282/1/4 284/1/4
f 282/2/4 283/2/4 284/2/4
f 284/2/4 283/2/4 285/2/4
f 281/1/4 284/1/4 286/1/4
f 286/1/4 284/1/4 287/1/4
f 281/1/4 286/1/4 288/1/4
f 288/1/4 289/1/4 290/1/4
f 290/1/4 291/1/4 293/1/4
f 288/1/4 290/1/4 293/1/4
f 291/2/4 292/2/4 294/2/4
f 293/1/4 291/1/4 294/1/4
f 294/2/4 292/2/4 295/2/4
f 288/1/4 293/1/4 296/1/4
f 281/1/4 288/1/4 296/1/4
f 296/1/4 293/1/4 297/1/4
f 281/1/4 296/1/4 298/1/4
f 298/1/4 299/1/4 300/1/4
f 298/1/4 300/1/4 302/1/4
f 281/1/4 298/1/4 302/1/4
f 300/2/4 301/2/4 303/2/4
f 302/1/4 300/1/4 303/1/4
f 303/2/4 301/2/4 304/2/4
f 307/1/5 306/1/5 305/1/5
f 308/1/5 306/1/5 307/1/5
f 309/1/5 307/1/5 305/1/5
f 310/1/5 306/1/5 308/1/5
f 311/1/5 309/1/5 305/1/5
f 311/1/5 310/1/5 309/1/5
f 312/1/5 306/1/5 310/1/5
f 312/1/5 310/1/5 311/1/5
f 313/1/6 314/1/6 317/1/6
f 317/1/6 314/1/6 318/1/6
f 315/1/6 316/1/6 319/1/6
f 319/1/6 316/1/6 320/1/6
f 321/1/6 322/1/6 325/1/6
f 325/1/6 322/1/6 326/1/6
f 323/1/6 324/1/6 327/1/6
f 327/1/6 324/1/6 328/1/6
f 329/1/6 330/1/6 333/1/6
f 333/1/6 330/1/6 334/1/6
f 331/1/6 332/1/6 335/1/6
f 335/1/6 332/1/6 336/1/6
f 337/1/6 338/1/6 341/1/6
f 341/1/6 338/1/6 342/1/6
f 339/1/6 340/1/6 343/1/6
f 343/1/6 340/1/6 344/1/6
f 345/1/6 346/1/6 354/1/6
f 354/1/6 346/1/6 355/1/6
f 347/1/6 348/1/6 356/1/6
f 356/1/6 348/1/6 357/1/6
f 349/1/6 350/1/6 358/1/6
f 358/1/6 350/1/6 359/1/6
f 351/1/6 352/1/6 360/1/6
f 360/1/6 352/1/6 361/1/6
f 353/1/6 354/1/6 363/1/6
f 363/1/6 354/1/6 364/1/6
f 361/1/6 362/1/6 365/1/6
f 365/1/6 362/1/6 366/1/6
f 367/1/6 368/1/6 371/1/6
f 371/1/6 368/1/6 372/1/6
f 369/1/6 370/1/6 373/1/6
f 373/1/6 370/1/6 374/1/6
f 375/1/6 376/1/6 379/1/6
f 379/1/6 376/1/6 380/1/6
f 377/1/6 378/1/6 381/1/6
f 381/1/6 378/1/6 382/1/6
f 383/1/6 384/1/6 387/1/6
f 387/1/6 384/1/6 388/1/6
f 385/1/6 386/1/6 395/1/6
f 395/1/6 386/1/6 396/1/6
f 388/1/6 389/1/6 397/1/6
f 397/1/6 389/1/6 398/1/6
f 390/1/6 391/1/6 399/1/6
f 399/1/6 391/1/6 400/1/6
f 392/1/6 393/1/6 401/1/6
f 401/1/6 393/1/6 402/1/6
f 394/1/6 395/1/6 403/1/6
f 403/1/6 395/1/6 404/1/6
f 405/2/6 406/2/6 409/2/6
f 409/2/6 406/2/6 410/2/6
f 407/2/6 408/2/6 411/2/6
f 411/2/6 408/2/6 412/2/6
f 413/2/6 414/2/6 417/2/6
f 417/2/6 414/2/6 418/2/6
f 415/2/6 416/2/6 419/2/6
f 419/2/6 416/2/6 420/2/6
f 421/2/6 422/2/6 423/2/6
f 423/2/6 422/2/6 424/2/6
f 425/2/6 426/2/6 429/2/6
f 429/2/6 426/2/6 430/2/6
f 427/2/6 428/2/6 431/2/6
f 431/2/6 428/2/6 432/2/6
f 433/2/6 434/2/6 435/2/6
f 435/2/6 434/2/6 436/2/6
